<?xml version="1.0" standalone="no"?>
<!DOCTYPE svg PUBLIC "-//W3C//DTD SVG 20010904//EN"
 "http://www.w3.org/TR/2001/REC-SVG-20010904/DTD/svg10.dtd">
<svg version="1.0" xmlns="http://www.w3.org/2000/svg"
 width="994.000000pt" height="994.000000pt" viewBox="0 0 994.000000 994.000000"
 preserveAspectRatio="xMidYMid meet">
<metadata>
Created by potrace 1.11, written by Peter Selinger 2001-2013
</metadata>
<g transform="translate(0.000000,994.000000) scale(0.100000,-0.100000)"
fill="#000000" stroke="none">
<path d="M0 9015 l0 -925 23 -1 c12 -1 34 0 50 1 15 1 27 -2 27 -7 0 -5 -19
-8 -41 -6 -23 1 -39 -1 -36 -4 10 -10 87 -13 87 -3 0 5 8 11 19 15 23 7 57 -5
42 -15 -7 -4 -2 -11 14 -18 15 -7 24 -8 20 -2 -8 14 18 13 32 -1 6 -6 39 -11
73 -11 44 0 59 -3 49 -10 -10 -6 -1 -8 26 -3 29 4 36 3 25 -4 -13 -9 -12 -11
5 -12 11 -1 34 -1 50 -1 26 1 27 0 10 -8 -15 -7 -4 -9 43 -7 34 2 62 0 62 -5
0 -4 10 -7 23 -7 12 1 35 -3 50 -10 34 -13 61 -14 32 0 -17 8 -17 9 5 4 14 -2
32 -5 40 -5 13 0 13 -1 0 -10 -11 -8 -8 -9 13 -4 18 4 27 2 27 -6 0 -9 14 -11
48 -6 28 3 39 2 27 -3 -15 -6 -3 -10 45 -15 35 -4 71 -11 81 -16 9 -5 34 -11
55 -14 21 -2 39 -5 39 -6 0 -2 34 -10 55 -14 8 -1 51 -14 95 -28 44 -14 94
-26 110 -27 17 -1 32 -6 33 -11 5 -13 32 -13 32 0 0 6 9 10 21 10 14 0 19 5
16 15 -4 8 -1 17 5 21 7 5 8 2 4 -7 -4 -8 0 -5 8 5 15 19 16 18 37 -8 21 -26
26 -28 80 -23 48 4 61 1 79 -15 20 -19 30 -20 108 -14 271 21 917 94 1212 136
140 20 398 55 485 66 28 3 95 12 150 20 55 8 116 17 135 19 19 3 103 14 185
25 83 11 168 23 190 25 88 11 115 17 115 25 0 10 -46 7 -57 -3 -3 -4 -20 -7
-37 -6 -30 1 -30 1 -6 8 21 6 16 9 -27 15 -29 3 -53 11 -53 16 0 5 13 4 31 -2
37 -13 52 -2 15 11 -14 6 -26 12 -26 14 0 4 67 -1 105 -7 42 -7 155 -7 253 0
69 5 84 9 93 26 8 15 8 19 0 14 -6 -4 -9 -2 -6 6 3 7 15 19 26 26 16 10 24 11
35 1 8 -7 11 -15 6 -18 -5 -3 6 -22 26 -41 19 -19 32 -30 28 -24 -6 12 42 30
52 20 5 -5 8 -28 11 -73 0 -12 8 -29 17 -38 16 -15 19 -47 14 -125 -2 -33 -3
-33 -10 -10 l-8 25 -1 -27 c-1 -15 4 -30 10 -34 7 -4 9 -22 5 -48 -3 -22 -8
-66 -11 -96 -3 -30 -8 -66 -12 -80 -3 -14 -6 -28 -5 -31 0 -3 -5 -30 -13 -60
-8 -30 -15 -73 -15 -96 0 -23 -5 -54 -11 -70 -6 -15 -13 -75 -15 -133 -2 -58
-6 -125 -9 -150 -2 -25 -7 -106 -10 -180 -16 -453 -21 -631 -30 -1305 -3 -220
-8 -419 -11 -442 -5 -37 -9 -42 -38 -47 -17 -3 -45 -2 -63 3 -17 5 -288 12
-602 16 -314 4 -570 9 -568 11 1 2 160 4 352 5 193 2 334 6 315 10 -23 4 -1 7
64 8 55 0 96 4 93 8 -8 8 -47 9 -652 18 -501 8 -710 12 -710 15 0 1 -151 4
-335 6 -454 5 -483 7 -487 22 -4 9 31 12 149 12 85 0 158 -3 162 -7 10 -10 56
-12 56 -2 0 4 -10 11 -23 15 -21 7 -21 8 8 20 29 13 29 13 5 14 l-25 1 23 12
23 13 -26 12 c-15 7 -31 9 -37 6 -18 -12 -28 19 -10 33 15 11 11 12 -25 13
-28 0 -43 -4 -43 -12 0 -7 -5 -5 -11 5 -15 25 -42 23 -34 -4 6 -17 3 -20 -16
-17 -14 2 -25 11 -27 22 -2 10 0 16 5 13 4 -3 6 15 4 39 -2 29 1 44 9 44 16 0
40 26 40 44 0 9 -4 16 -10 16 -5 0 -10 5 -10 10 0 6 7 10 15 10 18 0 19 11 3
45 -9 21 -9 31 1 48 12 18 11 22 -5 34 -10 7 -24 13 -31 13 -7 0 -13 5 -13 10
0 13 -57 13 -65 0 -4 -6 -12 -5 -21 4 -10 10 -14 38 -14 90 l0 76 36 0 c36 0
36 0 32 40 -2 22 0 40 4 40 5 0 8 -18 8 -40 0 -30 4 -40 16 -40 14 0 15 9 8
78 -5 42 -8 121 -6 175 l3 97 -40 0 c-30 0 -41 -4 -41 -15 0 -8 -9 -15 -20
-15 -17 0 -20 7 -20 40 0 33 -3 40 -20 40 -17 0 -20 7 -20 39 0 22 6 42 13 45
10 5 10 7 0 12 -16 7 -17 41 -1 46 8 3 8 9 0 24 -6 10 -12 14 -12 7 0 -8 -25
-13 -77 -15 l-78 -3 0 -38 c0 -32 -3 -37 -22 -37 -20 0 -23 5 -23 40 0 42 -24
58 -33 23 -4 -17 -5 -17 -6 0 -1 10 -9 17 -21 17 -17 0 -20 -7 -20 -40 0 -36
-2 -40 -25 -40 -19 0 -25 6 -26 23 -1 12 -2 29 -3 38 -1 9 -6 22 -12 30 -7 8
-14 23 -17 34 -3 11 -5 3 -4 -17 1 -21 4 -38 8 -38 4 0 7 -16 6 -35 -3 -49
-14 -44 -23 10 -3 25 -10 43 -14 40 -5 -3 -6 -15 -2 -27 3 -14 2 -19 -6 -14
-18 11 -14 -20 4 -35 13 -11 15 -26 9 -83 -3 -39 -8 -73 -11 -75 -5 -5 -9 69
-6 117 1 17 -3 32 -8 32 -5 0 -11 24 -13 53 -2 28 -4 -68 -5 -215 -2 -234 0
-267 13 -262 8 4 15 2 15 -4 0 -5 -6 -12 -14 -15 -10 -4 -13 -20 -11 -55 1
-27 5 -54 9 -60 8 -14 -4 -43 -15 -36 -5 3 -9 -4 -9 -16 0 -12 4 -19 9 -15 11
6 18 -15 25 -77 3 -26 1 -50 -4 -53 -6 -4 -10 18 -10 54 0 34 -3 61 -7 61 -5
0 -8 -36 -8 -80 0 -44 3 -80 7 -80 3 0 4 -9 1 -21 -4 -12 0 -25 8 -30 12 -7
11 -14 -4 -41 -17 -33 -21 -148 -4 -164 11 -11 8 -46 -3 -39 -18 11 -11 -14 8
-25 16 -11 16 -11 0 -6 -11 3 -18 0 -18 -8 0 -19 60 -24 370 -32 146 -3 270
-10 276 -15 5 -5 66 -10 135 -11 68 -2 -78 -7 -326 -11 -331 -6 -458 -5 -480
3 -16 6 -32 11 -35 11 -3 -1 -3 446 -1 993 2 728 0 995 -8 1000 -6 4 -11 16
-11 27 0 11 5 17 10 14 6 -3 10 3 10 15 0 12 -4 19 -9 16 -5 -4 -5 7 1 22 8
20 8 40 0 68 l-10 39 -2 -40 c-2 -35 -3 -37 -10 -15 -4 14 -8 40 -9 58 -1 29
-4 32 -31 32 -16 0 -30 -4 -30 -10 0 -23 -19 -8 -22 18 -2 19 -8 26 -20 24
-11 -2 -18 5 -20 20 -2 15 -11 24 -27 26 -14 2 -21 0 -17 -6 4 -6 2 -13 -4
-17 -5 -3 -10 1 -10 9 0 9 -7 16 -15 16 -8 0 -15 5 -15 10 0 6 -11 10 -24 10
-13 0 -26 4 -28 9 -1 4 -25 10 -53 13 -27 3 -44 3 -37 1 22 -8 1 -23 -34 -23
-23 0 -34 5 -34 14 0 26 -19 28 -121 16 -66 -8 -103 -9 -112 -2 -18 15 -81 24
-195 28 -95 3 -131 11 -194 45 -10 5 -18 5 -18 0 0 -13 -131 12 -155 30 -5 4
-26 9 -45 12 -58 8 -120 27 -120 37 0 6 -4 10 -10 10 -6 0 -10 -904 -10 -2651
l0 -2651 25 6 c14 3 37 8 53 11 l27 5 -30 -15 c-29 -14 -28 -15 35 -9 36 4 67
10 70 15 3 4 48 7 100 7 118 -1 187 6 223 25 15 8 42 13 60 11 46 -4 327 -4
362 0 17 2 63 4 104 5 61 1 72 3 62 15 -9 11 -5 15 24 18 26 3 34 1 31 -9 -3
-8 2 -13 15 -13 34 0 113 23 127 37 7 7 17 13 21 13 4 0 13 11 19 24 8 17 17
23 30 19 20 -5 27 18 38 127 2 25 6 51 9 58 2 6 0 12 -6 12 -6 0 -7 5 -3 11 9
16 13 239 19 1164 3 457 8 867 11 911 l6 82 31 5 c18 2 129 0 247 -4 118 -5
328 -12 465 -16 l250 -8 -140 -7 c-77 -4 -277 -12 -445 -18 -168 -5 -315 -10
-327 -11 -16 -1 -20 -5 -15 -20 6 -16 30 -23 25 -7 -2 5 2 8 8 8 6 0 8 -7 5
-16 -3 -9 -6 -18 -6 -20 0 -2 -7 -4 -15 -4 -13 0 -15 -18 -12 -115 1 -63 -1
-115 -5 -115 -14 0 -17 -1769 -3 -1828 5 -22 3 -42 -5 -57 -7 -13 -10 -29 -7
-37 3 -7 6 -2 8 12 1 21 3 19 9 -10 6 -29 8 -21 10 40 3 69 4 72 10 30 4 -25
8 -39 8 -32 3 17 32 15 32 -3 0 -8 -7 -15 -15 -15 -8 0 -15 -7 -15 -15 0 -12
9 -15 36 -13 19 1 38 -2 42 -7 4 -6 44 -11 90 -13 l82 -3 0 30 c0 17 5 31 11
31 5 0 8 -4 5 -8 -8 -13 209 -23 239 -12 24 9 25 13 25 95 0 67 -3 85 -14 85
-10 0 -16 14 -19 43 l-4 42 -1 -42 c-1 -27 -7 -43 -14 -43 -19 1 -48 25 -48
40 0 7 8 19 18 27 16 12 15 13 -8 12 -56 -4 -60 -1 -60 41 0 33 -3 40 -19 40
-30 0 -51 11 -51 26 0 8 5 14 10 14 6 0 10 7 10 15 0 8 -4 15 -10 15 -5 0 -10
7 -10 15 0 18 16 20 23 3 3 -7 3 3 0 22 -4 19 -13 40 -20 45 -10 8 -13 31 -11
85 2 41 2 113 0 159 -2 83 -2 83 -27 79 -21 -4 -25 -1 -25 18 0 28 15 31 30 7
10 -17 10 -17 20 0 8 12 24 17 60 17 l48 0 -1 -62 -2 -63 43 -3 c39 -3 42 -5
42 -33 0 -27 -2 -29 -39 -29 -22 0 -43 -5 -46 -10 -9 -15 15 -20 55 -12 l35 8
7 78 c8 85 13 99 29 76 8 -11 12 -12 16 -2 2 6 14 12 26 12 16 0 18 3 9 12 -7
7 -12 41 -12 80 l0 69 -75 -2 c-41 -2 -78 0 -81 4 -4 4 11 7 34 7 31 0 42 4
42 15 0 24 -86 21 -92 -3 -6 -22 -38 -25 -38 -4 0 12 -3 12 -15 2 -13 -11 -15
-7 -17 26 -2 60 2 88 15 96 9 6 8 11 -3 19 -11 8 -5 9 28 6 l42 -5 0 99 0 99
40 0 c33 0 40 3 40 20 0 17 -7 20 -40 20 l-40 0 -1 123 c-1 67 0 127 1 132 2
6 3 27 4 48 0 21 2 34 4 28 2 -6 12 -11 23 -11 11 0 19 -7 19 -17 0 -13 3 -14
12 -5 9 9 7 16 -10 30 -24 21 -20 32 12 32 20 0 20 1 -2 18 l-23 18 20 19 c12
10 21 29 21 43 0 24 -1 25 -20 7 -19 -17 -21 -17 -40 0 -13 12 -20 31 -20 57
0 38 0 38 40 38 l40 0 -2 64 c-1 49 3 68 16 81 28 29 5 40 -49 24 -44 -13 -46
-15 -44 -49 1 -19 1 -54 0 -77 -1 -36 -4 -43 -21 -43 -17 0 -20 7 -20 40 0 33
-3 40 -20 40 -16 0 -20 7 -20 30 0 17 5 30 10 30 6 0 10 4 10 9 0 12 -99 19
-127 10 -16 -6 -21 -5 -17 5 7 19 -53 27 -68 9 -15 -18 -40 -13 -44 10 -2 14
5 17 37 17 21 0 39 5 39 10 0 6 -11 10 -25 10 -14 0 -25 5 -25 11 0 10 41 9
50 -2 11 -12 70 -19 70 -7 0 6 3 8 6 5 4 -3 15 -2 25 4 12 6 26 6 35 1 14 -8
14 -10 0 -21 -9 -8 -25 -11 -37 -8 -13 3 -19 1 -16 -6 2 -7 31 -13 72 -15 55
-2 70 0 78 13 7 13 21 16 55 14 26 -2 72 5 102 15 44 14 90 17 235 16 380 -1
1473 11 1535 17 l65 6 -40 9 c-22 5 -188 11 -370 14 -181 3 -334 7 -340 9 -5
2 276 4 625 4 352 1 653 6 675 11 48 11 83 4 89 -18 3 -10 8 -80 11 -157 16
-360 23 -475 36 -592 19 -168 11 -772 -11 -833 -15 -44 -21 -692 -8 -950 11
-208 10 -272 -3 -364 -10 -73 -29 -122 -46 -119 -17 3 -256 35 -295 39 -45 4
-297 40 -388 54 -67 11 -399 55 -530 70 -41 5 -151 21 -245 34 -93 14 -269 39
-390 56 -334 46 -561 77 -765 106 -217 31 -405 37 -420 14 -5 -8 -10 -11 -10
-7 0 5 -10 1 -22 -7 -28 -20 -38 -20 -38 0 0 10 -6 14 -15 10 -8 -3 -15 -1
-15 5 0 6 -8 6 -21 -1 -24 -13 -73 -5 -64 11 6 9 -35 6 -53 -4 -4 -3 -28 -8
-52 -12 -51 -8 -59 -10 -80 -18 -29 -11 -133 -28 -172 -29 -15 0 -25 -4 -22
-9 3 -5 -7 -10 -23 -11 -67 -4 -93 -7 -178 -21 -82 -14 -129 -18 -178 -18 -9
0 -15 -3 -13 -7 2 -4 -16 -8 -40 -8 -34 -2 -48 3 -57 17 -6 10 -15 19 -20 19
-4 0 -6 -4 -3 -9 3 -5 -1 -12 -9 -15 -10 -4 -19 2 -25 17 -8 21 -11 20 -14 -5
-2 -22 -41 -15 -41 7 0 18 -6 20 -70 17 -151 -6 -231 -11 -252 -17 l-23 -5 0
-1085 0 -1085 4970 0 4970 0 0 4970 0 4970 -4970 0 -4970 0 0 -925z m5930 341
c0 -3 -4 -8 -10 -11 -5 -3 -10 -1 -10 4 0 6 5 11 10 11 6 0 10 -2 10 -4z m87
-22 c-3 -3 -12 -4 -19 -1 -8 3 -5 6 6 6 11 1 17 -2 13 -5z m237 -40 c44 -7 84
-19 89 -26 6 -10 10 -10 13 -1 5 12 10 11 61 -15 12 -7 29 -9 38 -6 8 3 15 2
15 -3 0 -5 17 -7 38 -5 29 3 34 1 22 -8 -12 -9 -11 -10 7 -5 12 3 46 -1 75 -9
71 -21 206 -54 243 -60 17 -3 57 -13 90 -22 74 -19 84 -21 165 -35 66 -11 91
-16 100 -19 16 -7 110 -4 110 3 0 5 -5 5 -12 1 -7 -4 -8 -3 -4 4 10 17 33 15
40 -3 5 -15 39 -16 53 -1 5 4 3 6 -4 4 -6 -2 -10 2 -10 7 1 6 34 10 74 10 39
0 75 3 79 8 13 13 23 8 38 -20 8 -16 15 -22 16 -15 0 6 7 12 16 12 8 0 13 4
10 8 -2 4 -1 14 3 21 9 14 81 5 81 -10 0 -13 52 -6 57 7 6 16 74 7 133 -16 25
-10 79 -28 120 -39 41 -12 98 -31 125 -41 28 -11 57 -20 66 -20 9 0 19 -3 23
-7 3 -4 16 -8 27 -10 12 -2 33 -9 48 -17 14 -8 60 -26 101 -42 41 -15 125 -54
187 -86 61 -32 117 -58 125 -58 7 0 29 -8 48 -19 26 -14 41 -16 59 -9 21 7 28
4 47 -19 13 -15 23 -23 24 -16 0 22 30 1 36 -26 4 -14 14 -34 22 -43 10 -12
11 -18 4 -18 -7 0 -12 -6 -12 -14 0 -8 -7 -16 -15 -19 -8 -4 -22 -23 -31 -44
-15 -34 -18 -106 -25 -633 -4 -327 -10 -662 -13 -745 -3 -82 -8 -566 -12
-1075 -5 -660 -10 -927 -18 -932 -6 -4 -912 -8 -2013 -8 l-2003 0 0 167 c0 93
4 431 10 753 5 322 12 925 15 1340 4 415 9 758 12 763 2 4 22 7 43 7 21 0 99
9 172 19 73 11 160 22 193 26 54 6 380 48 580 75 44 6 94 13 110 15 17 2 82
11 145 19 63 9 201 27 305 41 208 27 305 40 405 55 36 6 171 24 300 40 204 26
428 58 538 77 32 5 43 26 20 37 -7 3 -1 3 13 0 17 -4 30 0 40 13 12 16 12 17
-1 7 -17 -12 -131 -4 -130 9 1 5 -7 15 -17 22 -13 10 -20 10 -25 2 -5 -8 -11
-8 -15 -2 -16 21 -105 55 -143 55 -22 0 -40 4 -40 8 0 7 -48 23 -112 37 -16 3
-28 10 -28 15 0 5 -17 12 -37 16 -55 10 -103 32 -110 50 -3 10 -13 14 -25 11
-20 -6 -46 14 -67 49 -6 11 -11 13 -11 7 0 -21 -16 -15 -28 10 -6 12 -11 16
-11 9 -1 -8 -9 -6 -23 8 -12 11 -32 20 -45 20 -14 0 -23 6 -23 16 0 28 -27 46
-51 34 -11 -7 -23 -9 -26 -6 -4 3 -13 0 -21 -7 -13 -10 -14 -8 -8 16 6 26 5
28 -16 22 -13 -4 -19 -4 -15 1 10 10 -89 55 -107 48 -7 -3 -19 2 -26 11 -7 8
-22 15 -34 16 -20 0 -20 1 -1 9 17 6 14 9 -18 15 -21 4 -42 15 -47 25 -6 11
-27 21 -50 25 -22 4 -47 13 -54 20 -7 8 -16 12 -19 9 -11 -11 -45 7 -50 27 -3
12 -10 18 -17 14 -12 -7 -132 70 -122 79 3 4 13 4 21 1 9 -4 52 -13 95 -21z
m-139 -24 c3 -5 1 -10 -4 -10 -6 0 -11 5 -11 10 0 6 2 10 4 10 3 0 8 -4 11
-10z m1395 -130 c0 -5 -4 -10 -10 -10 -5 0 -10 5 -10 10 0 6 5 10 10 10 6 0
10 -4 10 -10z m-750 -190 c0 -5 -7 -10 -16 -10 -8 0 -12 5 -9 10 3 6 10 10 16
10 5 0 9 -4 9 -10z m80 -60 c0 -5 -2 -10 -4 -10 -3 0 -8 5 -11 10 -3 6 -1 10
4 10 6 0 11 -4 11 -10z m54 -20 c34 -13 33 -27 -1 -26 -18 1 -29 7 -31 19 -4
20 -2 20 32 7z m86 -40 c0 -13 -20 -13 -40 0 -12 8 -9 10 13 10 15 0 27 -4 27
-10z m35 -39 c-6 -5 -25 10 -25 20 0 5 6 4 14 -3 8 -7 12 -15 11 -17z m165
-58 c0 -10 -20 -40 -20 -31 0 3 -3 13 -6 22 -4 11 -1 16 10 16 9 0 16 -3 16
-7z m140 -37 c0 -9 -30 -14 -35 -6 -4 6 3 10 14 10 12 0 21 -2 21 -4z m114
-25 c11 -4 15 -10 9 -14 -5 -3 -19 0 -29 8 -20 15 -11 18 20 6z m41 -21 c3 -5
1 -10 -4 -10 -6 0 -11 5 -11 10 0 6 2 10 4 10 3 0 8 -4 11 -10z m-3578 -476
c-3 -3 -12 -4 -19 -1 -8 3 -5 6 6 6 11 1 17 -2 13 -5z m106 -9 c4 -8 2 -17 -3
-20 -6 -4 -10 -2 -10 3 0 5 -10 14 -22 20 -23 11 -23 11 3 11 15 1 29 -6 32
-14z m23 -35 c0 -12 -4 -16 -9 -11 -5 5 -6 14 -3 20 10 15 12 14 12 -9z m61
-26 c-3 -3 -12 -4 -19 -1 -8 3 -5 6 6 6 11 1 17 -2 13 -5z m-3787 -508 c0 -11
-19 -15 -25 -6 -3 5 1 10 9 10 9 0 16 -2 16 -4z m356 -45 c5 -5 27 -11 49 -14
30 -3 25 -4 -21 -5 -80 -3 -184 9 -184 19 0 12 144 11 156 0z m1051 -1163 c-3
-8 -6 -5 -6 6 -1 11 2 17 5 13 3 -3 4 -12 1 -19z m-130 -90 c-3 -7 -5 -2 -5
12 0 14 2 19 5 13 2 -7 2 -19 0 -25z m-50 -180 c-2 -35 -3 -7 -3 62 0 69 1 97
3 63 2 -35 2 -91 0 -125z m73 -179 c0 -21 -4 -41 -10 -44 -5 -3 -10 -18 -9
-33 0 -24 1 -25 9 -7 7 16 9 11 9 -21 1 -38 -1 -41 -25 -40 -14 1 -31 10 -36
20 -8 14 -7 17 1 12 7 -5 11 3 11 24 0 18 4 29 10 25 6 -3 10 1 10 9 0 8 -4
17 -9 21 -6 3 -9 23 -8 43 1 34 4 38 24 34 19 -4 23 -11 23 -43z m257 19 c-3
-8 -6 -5 -6 6 -1 11 2 17 5 13 3 -3 4 -12 1 -19z m-197 -68 c0 -5 -4 -10 -10
-10 -17 0 -11 -25 11 -49 18 -19 19 -24 7 -39 -36 -46 -38 -46 -39 10 -1 45
-3 48 -9 23 -8 -30 -8 -30 -9 8 0 21 3 36 8 32 5 -3 12 4 16 15 7 20 25 28 25
10z m-123 -32 c-3 -8 -6 -5 -6 6 -1 11 2 17 5 13 3 -3 4 -12 1 -19z m18 -108
c3 -5 1 -10 -4 -10 -6 0 -11 5 -11 10 0 6 2 10 4 10 3 0 8 -4 11 -10z m68 -5
c4 -8 2 -17 -3 -20 -6 -4 -10 3 -10 14 0 25 6 27 13 6z m97 1 c0 -2 -7 -7 -16
-10 -8 -3 -12 -2 -9 4 6 10 25 14 25 6z m-123 -48 c-3 -7 -5 -2 -5 12 0 14 2
19 5 13 2 -7 2 -19 0 -25z m-30 -95 c-3 -10 -5 -4 -5 12 0 17 2 24 5 18 2 -7
2 -21 0 -30z m-20 -5 c-3 -8 -6 -5 -6 6 -1 11 2 17 5 13 3 -3 4 -12 1 -19z
m423 -42 c0 -2 -7 -6 -15 -10 -8 -3 -15 -1 -15 4 0 6 7 10 15 10 8 0 15 -2 15
-4z m-3 -52 c-3 -3 -12 -4 -19 -1 -8 3 -5 6 6 6 11 1 17 -2 13 -5z m-399 -48
c-2 -30 -7 -42 -15 -39 -7 3 -13 10 -14 17 0 6 -3 22 -5 36 -4 24 -4 24 10 5
15 -20 15 -20 16 3 0 12 2 22 5 22 3 0 4 -20 3 -44z m39 -8 c-3 -8 -6 -5 -6 6
-1 11 2 17 5 13 3 -3 4 -12 1 -19z m-87 -46 c-7 -13 -9 -8 -9 23 0 35 1 37 10
17 6 -15 5 -30 -1 -40z m194 7 c-3 -5 -25 -9 -49 -9 -25 0 -45 -5 -48 -12 -3
-7 -6 -4 -6 8 -1 11 1 23 3 25 9 8 106 -3 100 -12z m94 -26 c8 -27 8 -39 0
-44 -19 -12 28 -29 81 -29 39 0 51 -4 51 -15 0 -12 -13 -15 -60 -15 -45 0 -62
4 -66 15 -4 8 -12 15 -20 15 -8 0 -14 7 -14 15 0 8 -5 15 -10 15 -6 0 -5 8 2
20 10 16 10 24 0 40 -10 17 -10 20 6 20 13 0 22 -12 30 -37z m132 7 c0 -28 -2
-30 -39 -30 -22 0 -41 -5 -44 -12 -4 -10 -37 49 -37 65 0 3 27 5 60 6 l60 1 0
-30z m-225 -40 c3 -5 1 -10 -4 -10 -6 0 -11 5 -11 10 0 6 2 10 4 10 3 0 8 -4
11 -10z m465 -5 c0 -11 -11 -15 -42 -14 -34 2 -37 3 -13 6 17 3 34 9 40 14 12
12 15 11 15 -6z m-590 -15 c0 -5 -4 -10 -10 -10 -5 0 -10 5 -10 10 0 6 5 10
10 10 6 0 10 -4 10 -10z m670 -20 c0 -5 -4 -10 -10 -10 -5 0 -10 5 -10 10 0 6
5 10 10 10 6 0 10 -4 10 -10z m-465 -34 c18 -13 15 -15 -36 -21 -31 -4 -65 -5
-75 -2 -13 3 -9 5 11 6 17 1 39 8 49 16 24 18 27 18 51 1z m118 -23 c-13 -2
-33 -2 -45 0 -13 2 -3 4 22 4 25 0 35 -2 23 -4z m534 -69 c-3 -3 -12 -4 -19
-1 -8 3 -5 6 6 6 11 1 17 -2 13 -5z m566 -11 c-29 -2 -78 -2 -110 0 -32 2 -8
3 52 3 61 0 87 -1 58 -3z m105 0 c-10 -2 -26 -2 -35 0 -10 3 -2 5 17 5 19 0
27 -2 18 -5z m155 0 c-7 -2 -19 -2 -25 0 -7 3 -2 5 12 5 14 0 19 -2 13 -5z
m-700 -260 c-13 -2 -35 -2 -50 0 -16 2 -5 4 22 4 28 0 40 -2 28 -4z m225 0
c-10 -2 -26 -2 -35 0 -10 3 -2 5 17 5 19 0 27 -2 18 -5z m65 0 c-7 -2 -21 -2
-30 0 -10 3 -4 5 12 5 17 0 24 -2 18 -5z m185 0 c-26 -2 -71 -2 -100 0 -29 2
-8 3 47 3 55 0 79 -1 53 -3z m5781 -693 c-2 -382 -4 -1148 -4 -1702 0 -1098
-3 -1032 55 -1041 20 -3 24 -9 22 -27 -2 -13 -10 -30 -18 -37 -19 -19 -19 -18
23 -58 39 -37 37 -42 -27 -47 -31 -3 -35 -7 -38 -33 -6 -50 -21 -59 -50 -30
-13 14 -31 25 -39 25 -13 0 -61 -27 -73 -40 -3 -4 -21 -12 -40 -20 -19 -7 -75
-34 -125 -60 -83 -43 -165 -79 -191 -85 -6 -2 -29 -15 -51 -29 -22 -15 -64
-31 -94 -35 -30 -5 -77 -21 -105 -35 -29 -14 -59 -26 -67 -26 -9 0 -28 -6 -44
-14 -38 -19 -93 -37 -123 -41 -14 -2 -88 -21 -165 -42 -227 -64 -257 -70 -330
-66 -48 2 -71 0 -78 -9 -5 -9 -10 -9 -13 -2 -5 11 -126 10 -144 -1 -5 -3 -18
-1 -27 4 -14 8 -15 11 -3 11 10 1 9 4 -5 11 -15 6 -6 8 32 6 28 -1 49 1 46 6
-2 4 -24 7 -48 7 -29 0 -45 5 -49 15 -3 9 -18 15 -38 15 -40 0 -53 -8 -62 -36
-6 -19 -3 -20 44 -19 68 2 73 -11 7 -18 -37 -3 -60 0 -79 11 -16 9 -28 19 -28
23 0 4 -18 14 -40 23 -41 16 -50 30 -27 40 6 3 1 3 -12 0 -16 -4 -21 -3 -17 5
4 6 3 11 -3 11 -5 0 -17 3 -26 6 -10 4 -15 2 -13 -6 2 -7 -3 -15 -11 -18 -8
-2 -11 -1 -8 4 3 5 -8 10 -24 11 -20 2 -27 -1 -23 -9 5 -8 1 -9 -10 -5 -9 4
-33 0 -53 -8 -59 -25 -133 -18 -133 12 0 13 10 15 53 10 34 -3 61 0 79 9 15 8
33 11 41 9 7 -3 24 -1 38 4 l24 10 -26 0 c-43 1 -89 13 -89 22 0 5 9 9 19 9
11 0 22 4 25 9 3 5 22 12 41 15 19 4 35 11 35 16 0 8 -53 23 -85 25 -5 0 -11
21 -13 48 -3 45 -5 47 -33 47 -20 0 -29 5 -29 16 0 8 5 12 10 9 6 -3 10 -1 10
4 0 6 9 11 20 11 11 0 20 5 20 10 0 6 9 10 20 10 11 0 20 5 20 10 0 6 12 10
26 10 17 0 39 14 64 40 42 44 50 48 50 24 0 -13 3 -14 14 -4 8 6 12 18 9 26
-4 10 2 14 21 14 14 0 26 -4 26 -10 0 -16 14 -12 38 10 13 12 35 20 57 20 19
0 35 5 35 10 0 6 15 10 33 10 19 0 49 7 67 17 19 9 56 18 84 21 34 3 55 11 64
23 7 11 22 19 33 19 10 0 19 5 19 10 0 6 11 10 24 10 14 0 28 4 31 10 3 5 23
10 44 10 35 0 61 14 61 32 0 4 -8 8 -17 8 -10 0 -25 5 -33 11 -11 8 -7 9 18 6
18 -2 29 0 25 4 -12 11 -162 27 -165 17 -2 -4 -15 -2 -29 6 -14 7 -64 19 -110
25 -46 7 -95 14 -109 16 -14 2 -65 9 -115 15 -49 6 -135 18 -190 26 -55 8
-150 21 -211 29 -61 8 -155 21 -210 29 -54 8 -119 17 -144 20 -25 3 -128 17
-230 30 -192 26 -511 69 -830 111 -102 13 -220 27 -262 30 l-78 7 0 1146 c0
631 3 1318 7 1527 l6 380 2015 0 2014 0 -3 -695z m-6773 633 c-10 -11 -36 -12
-36 -2 0 5 10 9 22 9 12 0 18 -3 14 -7z m-458 -58 c12 -14 18 -25 13 -25 -6 0
-12 4 -16 10 -3 5 -12 7 -20 4 -9 -4 -13 1 -12 15 2 27 9 26 35 -4z m108 -29
c18 -19 18 -62 0 -69 -20 -8 -26 2 -26 45 0 41 4 45 26 24z m284 -16 c0 -5 -4
-10 -10 -10 -5 0 -10 5 -10 10 0 6 5 10 10 10 6 0 10 -4 10 -10z m-330 -90 c0
-29 4 -40 15 -40 8 0 15 -4 15 -8 0 -5 -7 -17 -15 -28 -15 -19 -15 -19 -30 1
-9 11 -13 26 -10 33 3 8 5 29 5 48 0 19 5 34 10 34 6 0 10 -18 10 -40z m75
-80 c0 -22 -3 -40 -7 -40 -5 0 -8 18 -8 40 0 22 3 40 8 40 4 0 7 -18 7 -40z
m45 30 c0 -5 -2 -10 -4 -10 -3 0 -8 5 -11 10 -3 6 -1 10 4 10 6 0 11 -4 11
-10z m80 -26 c0 -13 -4 -24 -10 -24 -5 0 -10 14 -10 31 0 17 4 28 10 24 6 -3
10 -17 10 -31z m-339 -17 c-10 -9 -11 -8 -5 6 3 10 9 15 12 12 3 -3 0 -11 -7
-18z m64 3 c3 -5 -1 -10 -10 -10 -9 0 -13 5 -10 10 3 6 8 10 10 10 2 0 7 -4
10 -10z m195 -20 c0 -5 -5 -10 -11 -10 -5 0 -7 5 -4 10 3 6 8 10 11 10 2 0 4
-4 4 -10z m-247 -20 c-3 -11 -7 -20 -8 -20 -1 0 -5 9 -8 20 -3 12 0 20 8 20 8
0 11 -8 8 -20z m34 -12 c-3 -8 -6 -5 -6 6 -1 11 2 17 5 13 3 -3 4 -12 1 -19z
m166 -3 c1 -5 -6 -11 -15 -13 -11 -2 -18 3 -18 13 0 17 30 18 33 0z m127 -35
c0 -23 -5 -40 -11 -40 -8 0 -8 -5 1 -15 9 -10 9 -15 1 -15 -6 0 -11 -11 -11
-25 0 -14 5 -25 10 -25 15 0 12 -26 -5 -40 -12 -10 -13 -15 -4 -20 8 -6 8 -9
0 -14 -6 -4 -11 -2 -11 3 0 15 -43 14 -58 -1 -9 -9 -12 -9 -12 0 0 7 5 12 10
12 6 0 10 9 10 20 0 12 7 32 16 45 15 23 15 25 0 25 -9 0 -16 7 -16 15 0 8 7
15 15 15 8 0 15 7 15 15 0 11 -14 15 -57 16 -54 1 -55 2 -23 9 19 5 44 7 56 4
16 -4 24 1 34 25 18 45 40 40 40 -9z m-189 -12 c23 -29 24 -51 2 -46 -10 2
-17 11 -15 20 1 9 -6 19 -18 23 -24 8 -27 25 -4 25 9 0 24 -10 35 -22z m299
-9 c0 -5 -7 -9 -15 -9 -9 0 -15 9 -15 21 0 18 2 19 15 9 8 -7 15 -16 15 -21z
m-443 -36 c-3 -10 -5 -4 -5 12 0 17 2 24 5 18 2 -7 2 -21 0 -30z m105 5 c-9
-9 -12 -7 -12 12 0 19 3 21 12 12 9 -9 9 -15 0 -24z m-65 -190 c-2 -13 -4 -3
-4 22 0 25 2 35 4 23 2 -13 2 -33 0 -45z m173 20 c0 -16 -3 -19 -11 -11 -6 6
-8 16 -5 22 11 17 16 13 16 -11z m36 -47 c-10 -16 -79 -14 -73 2 2 6 16 11 31
9 15 -2 26 2 26 10 0 9 3 9 11 1 6 -6 8 -16 5 -22z m-86 -1 c0 -5 -11 -10 -25
-10 -14 0 -25 5 -25 10 0 6 11 10 25 10 14 0 25 -4 25 -10z m13 -82 c3 -10 -7
-12 -39 -9 -24 1 -41 7 -38 12 8 14 71 11 77 -3z m-166 -30 c-3 -8 -6 -5 -6 6
-1 11 2 17 5 13 3 -3 4 -12 1 -19z m143 -13 c-7 -8 -23 -15 -36 -15 -15 0 -24
6 -24 15 0 11 11 15 36 15 31 0 35 -2 24 -15z m-93 -42 c-3 -10 -5 -2 -5 17 0
19 2 27 5 18 2 -10 2 -26 0 -35z m63 13 c0 -3 -4 -8 -10 -11 -5 -3 -10 -1 -10
4 0 6 5 11 10 11 6 0 10 -2 10 -4z m210 -66 c0 -5 -5 -10 -11 -10 -5 0 -7 5
-4 10 3 6 8 10 11 10 2 0 4 -4 4 -10z m-83 -32 c-3 -8 -6 -5 -6 6 -1 11 2 17
5 13 3 -3 4 -12 1 -19z m-250 -50 c-3 -8 -6 -5 -6 6 -1 11 2 17 5 13 3 -3 4
-12 1 -19z m-18 -142 c-5 -6 -8 26 -8 75 l2 84 7 -75 c4 -41 4 -79 -1 -84z
m28 107 c-10 -22 -13 -24 -15 -9 -2 10 2 22 10 27 19 12 19 12 5 -18z m28 6
c-4 -12 -2 -32 5 -44 9 -17 10 -43 4 -92 l-8 -68 -7 100 c-6 93 -4 125 8 125
2 0 1 -10 -2 -21z m335 1 c0 -5 -4 -10 -10 -10 -5 0 -10 5 -10 10 0 6 5 10 10
10 6 0 10 -4 10 -10z m-350 -75 c0 -8 -4 -15 -8 -15 -5 0 -9 7 -9 15 0 8 4 15
9 15 4 0 8 -7 8 -15z m-7 -48 c3 -8 -1 -14 -9 -14 -8 0 -14 6 -14 14 0 7 4 13
9 13 5 0 11 -6 14 -13z m-10 -57 c-3 -11 -7 -20 -9 -20 -2 0 -4 9 -4 20 0 11
4 20 9 20 5 0 7 -9 4 -20z m84 -112 c-3 -7 -5 -2 -5 12 0 14 2 19 5 13 2 -7 2
-19 0 -25z m5 -233 c-3 -161 -2 -174 15 -177 15 -3 15 -5 -4 -10 l-23 -6 0
191 c0 105 3 187 7 183 5 -4 6 -86 5 -181z m363 135 c-3 -5 -15 -10 -26 -10
-10 0 -19 5 -19 10 0 6 12 10 26 10 14 0 23 -4 19 -10z m35 -40 c0 -23 -4 -30
-20 -30 -16 0 -20 7 -20 30 0 23 4 30 20 30 16 0 20 -7 20 -30z m-220 -149 c0
-22 -4 -43 -10 -46 -6 -4 -10 12 -10 39 0 25 5 46 10 46 6 0 10 -18 10 -39z
m-223 -78 c-2 -21 -4 -4 -4 37 0 41 2 58 4 38 2 -21 2 -55 0 -75z m-76 -294
l-11 -34 5 34 c3 18 6 45 6 60 l2 26 4 -26 c2 -15 -1 -42 -6 -60z m96 24 c-3
-10 -5 -4 -5 12 0 17 2 24 5 18 2 -7 2 -21 0 -30z m-100 -105 c-3 -7 -5 -2 -5
12 0 14 2 19 5 13 2 -7 2 -19 0 -25z m40 -90 c-3 -8 -6 -5 -6 6 -1 11 2 17 5
13 3 -3 4 -12 1 -19z m-220 -190 c-3 -8 -6 -5 -6 6 -1 11 2 17 5 13 3 -3 4
-12 1 -19z m-17 -22 c0 -3 -4 -8 -10 -11 -5 -3 -10 -1 -10 4 0 6 5 11 10 11 6
0 10 -2 10 -4z m-641 -63 c3 -2 -28 -3 -67 -2 -40 1 -69 6 -66 11 5 8 123 1
133 -9z m364 0 c-7 -2 -21 -2 -30 0 -10 3 -4 5 12 5 17 0 24 -2 18 -5z m-205
-10 c-10 -2 -26 -2 -35 0 -10 3 -2 5 17 5 19 0 27 -2 18 -5z m-513 -33 c-27
-12 -43 -12 -25 0 8 5 22 9 30 9 10 0 8 -3 -5 -9z m135 -300 c-8 -5 -19 -10
-25 -10 -5 0 -3 5 5 10 8 5 20 10 25 10 6 0 3 -5 -5 -10z m6740 -734 c0 -11
-19 -15 -25 -6 -3 5 1 10 9 10 9 0 16 -2 16 -4z m-40 -26 c0 -16 -7 -20 -34
-20 -20 0 -36 6 -39 14 -6 14 4 18 61 25 6 0 12 -8 12 -19z m73 -7 c-7 -2 -19
-2 -25 0 -7 3 -2 5 12 5 14 0 19 -2 13 -5z m-249 -44 c-9 -15 -34 -10 -28 5 3
8 12 12 20 9 8 -3 11 -9 8 -14z m53 15 c-3 -3 -12 -4 -19 -1 -8 3 -5 6 6 6 11
1 17 -2 13 -5z m-200 -40 c-3 -3 -12 -4 -19 -1 -8 3 -5 6 6 6 11 1 17 -2 13
-5z m-102 -74 c4 -6 -7 -10 -27 -9 -27 0 -30 2 -13 9 27 12 33 12 40 0z m-60
-20 c3 -5 -3 -10 -15 -10 -12 0 -18 5 -15 10 3 6 10 10 15 10 5 0 12 -4 15
-10z m58 -7 c-7 -2 -19 -2 -25 0 -7 3 -2 5 12 5 14 0 19 -2 13 -5z m-136 -39
c-3 -3 -12 -4 -19 -1 -8 3 -5 6 6 6 11 1 17 -2 13 -5z m-79 -84 c2 -23 -2 -40
-8 -40 -5 0 -10 -11 -10 -25 0 -26 -14 -33 -26 -13 -4 6 -2 14 4 16 7 2 12 23
12 47 0 25 5 45 13 48 6 3 12 6 13 6 0 1 1 -17 2 -39z m79 -82 c-3 -8 -6 -5
-6 6 -1 11 2 17 5 13 3 -3 4 -12 1 -19z m3 -68 c0 -5 -18 -10 -40 -10 -22 0
-43 0 -47 -1 -4 0 -9 4 -11 10 -2 7 15 11 47 11 28 0 51 -4 51 -10z m40 -35
c-7 -8 -18 -15 -25 -15 -6 0 -12 7 -12 15 0 9 10 15 25 15 21 0 22 -2 12 -15z"/>
<path d="M6300 9221 c0 -6 8 -11 17 -11 9 0 24 -6 32 -14 9 -7 32 -16 51 -19
19 -3 29 -3 22 0 -6 2 -10 9 -6 14 3 5 -3 9 -13 9 -11 0 -23 4 -28 9 -16 15
-75 24 -75 12z"/>
<path d="M6492 9147 c13 -14 141 -81 186 -98 13 -5 22 -5 22 1 0 6 -9 10 -20
10 -11 0 -20 4 -20 8 0 11 -56 43 -86 48 -14 3 -35 14 -47 24 -24 23 -58 29
-35 7z"/>
<path d="M7425 9090 c3 -5 1 -10 -6 -10 -7 0 -10 -2 -8 -5 8 -7 49 6 49 16 0
5 -9 9 -21 9 -11 0 -17 -4 -14 -10z"/>
<path d="M7668 9083 c7 -3 16 -2 19 1 4 3 -2 6 -13 5 -11 0 -14 -3 -6 -6z"/>
<path d="M7468 9053 c7 -3 16 -2 19 1 4 3 -2 6 -13 5 -11 0 -14 -3 -6 -6z"/>
<path d="M6718 9033 c6 -2 12 -11 12 -19 0 -8 4 -14 9 -14 5 0 7 9 4 20 -3 11
-13 20 -22 19 -10 0 -11 -2 -3 -6z"/>
<path d="M7685 8570 c3 -5 14 -10 23 -10 15 0 15 2 2 10 -20 13 -33 13 -25 0z"/>
<path d="M8478 8573 c7 -3 16 -2 19 1 4 3 -2 6 -13 5 -11 0 -14 -3 -6 -6z"/>
<path d="M8382 8560 c1 -17 -3 -23 -10 -12 -6 9 -26 10 -88 2 -72 -9 -536 -63
-644 -74 -58 -6 -595 -72 -1105 -136 -220 -28 -472 -60 -560 -70 -88 -11 -176
-23 -195 -25 -19 -3 -154 -21 -300 -40 -146 -19 -290 -39 -320 -44 -30 -6 -84
-13 -120 -16 -96 -10 -114 -17 -65 -28 22 -4 65 -12 95 -17 30 -4 82 -15 115
-23 33 -9 157 -34 275 -57 118 -23 225 -43 238 -46 23 -5 172 -31 227 -40 49
-8 298 -52 475 -84 547 -99 731 -131 775 -132 17 0 35 -4 41 -9 5 -5 30 -11
53 -14 24 -3 46 -7 50 -9 4 -3 45 -10 91 -16 47 -6 128 -19 180 -29 52 -10
129 -24 170 -30 41 -7 95 -16 120 -21 25 -5 61 -11 80 -14 19 -2 71 -11 115
-19 44 -8 87 -15 95 -15 8 0 53 -8 100 -17 47 -9 108 -19 135 -21 28 -3 57 -8
65 -11 8 -3 42 -9 75 -13 33 -4 85 -12 115 -18 30 -6 74 -13 96 -16 49 -6 51
-1 48 104 -1 36 -2 185 -3 331 -1 225 -3 266 -16 266 -8 0 -11 -5 -8 -11 14
-22 12 -56 -3 -56 -8 0 -14 6 -13 13 3 27 -2 47 -12 47 -6 0 -9 -9 -6 -20 3
-13 0 -20 -9 -20 -8 0 -14 9 -14 20 0 11 5 20 10 20 6 0 20 10 31 21 17 17 23
19 30 8 5 -8 9 -9 9 -3 0 6 -6 16 -13 22 -10 8 -16 6 -25 -9 -15 -24 -32 -16
-32 15 0 12 -5 27 -12 34 -7 7 -8 12 -2 12 14 0 14 33 0 43 -7 4 -3 9 10 13
15 4 23 16 26 34 2 16 2 28 -1 27 -3 -1 -16 4 -28 11 -28 15 -33 -4 -6 -23 16
-12 13 -45 -4 -45 -15 0 -33 54 -33 96 0 28 -5 44 -15 48 -10 3 -15 -1 -15
-12 0 -12 -8 -9 -32 16 -28 28 -31 34 -18 43 12 9 10 10 -7 6 -13 -3 -23 0
-23 5 0 6 -12 8 -30 5 -16 -4 -32 -2 -36 4 -3 5 -35 9 -70 8 -35 -1 -67 1 -71
4 -3 4 8 7 25 7 18 0 40 8 50 18 17 17 16 17 -20 17 -20 0 -36 -2 -36 -5z
m407 -522 c-2 -28 -2 -29 -6 -8 -3 14 -10 28 -17 32 -7 5 -5 8 7 8 13 0 17 -8
16 -32z"/>
<path d="M8791 8324 c0 -11 3 -14 6 -6 3 7 2 16 -1 19 -3 4 -6 -2 -5 -13z"/>
<path d="M8791 8284 c0 -11 3 -14 6 -6 3 7 2 16 -1 19 -3 4 -6 -2 -5 -13z"/>
<path d="M8791 8244 c0 -11 3 -14 6 -6 3 7 2 16 -1 19 -3 4 -6 -2 -5 -13z"/>
<path d="M6870 8860 c0 -6 7 -10 15 -10 8 0 15 2 15 4 0 2 -7 6 -15 10 -8 3
-15 1 -15 -4z"/>
<path d="M8650 2573 c-36 -2 -72 -6 -80 -10 -8 -3 -26 -8 -40 -9 -31 -5 -110
-16 -130 -19 -106 -17 -158 -26 -230 -39 -47 -8 -107 -17 -135 -20 -27 -3 -81
-12 -120 -20 -38 -8 -99 -17 -135 -21 -36 -4 -91 -13 -123 -21 -32 -8 -79 -17
-105 -19 -61 -6 -123 -14 -142 -20 -22 -6 -297 -47 -350 -52 -25 -2 -52 -6
-60 -9 -8 -3 -53 -12 -100 -20 -289 -46 -409 -65 -440 -69 -117 -18 -380 -61
-510 -85 -71 -13 -84 -15 -213 -34 -59 -8 -113 -18 -119 -22 -6 -4 -26 -7 -45
-6 -18 1 -33 -2 -33 -6 0 -4 -26 -8 -57 -10 -32 -1 -71 -7 -88 -11 -16 -5 -61
-15 -100 -21 -38 -7 -94 -16 -122 -22 -29 -5 -56 -9 -60 -10 -5 0 -12 -3 -18
-7 -5 -4 -20 -6 -32 -5 -13 0 -23 -2 -23 -5 0 -4 -14 -6 -30 -5 -17 1 -33 -2
-36 -7 -3 -6 -15 -7 -26 -3 -14 4 -18 2 -14 -5 5 -7 -2 -11 -16 -11 -13 0 -29
-4 -36 -8 -18 -12 154 -41 568 -96 63 -8 183 -24 265 -36 83 -11 170 -22 195
-24 25 -2 74 -9 110 -14 36 -6 90 -14 120 -17 30 -3 82 -10 115 -15 33 -5 98
-14 145 -19 143 -17 319 -39 445 -56 66 -9 143 -18 170 -21 28 -2 75 -8 105
-13 30 -5 109 -14 175 -21 66 -6 147 -16 180 -22 33 -6 80 -12 105 -14 48 -3
115 -10 193 -19 30 -4 47 -2 47 5 0 6 12 2 27 -7 15 -10 24 -12 20 -5 -5 6 -4
12 2 12 5 0 11 -5 13 -11 4 -11 90 -21 173 -21 22 0 42 -3 45 -8 5 -8 73 -14
250 -24 36 -2 72 -5 80 -7 9 -1 28 1 44 5 23 6 27 4 23 -7 -4 -11 0 -13 14
-10 10 3 19 10 19 16 0 5 8 3 18 -6 10 -10 27 -17 38 -17 16 0 17 2 4 10 -11
7 -5 8 20 4 19 -3 41 -7 48 -10 21 -6 13 6 -10 17 -22 9 -22 9 3 6 23 -3 25 0
24 25 -1 16 2 31 7 34 4 3 6 10 3 15 -4 5 -2 9 3 9 5 0 7 11 4 25 -3 20 -1 24
11 19 20 -7 30 11 14 28 -14 14 -8 58 8 61 6 1 11 16 12 32 4 63 13 439 15
630 3 228 16 204 -102 198z"/>
<path d="M7495 1440 c-3 -5 -1 -10 4 -10 6 0 11 5 11 10 0 6 -2 10 -4 10 -3 0
-8 -4 -11 -10z"/>
<path d="M6700 1100 c0 -5 -6 -9 -12 -7 -8 1 -14 -12 -16 -35 -3 -33 0 -38 17
-38 18 0 21 6 21 45 0 25 -2 45 -5 45 -3 0 -5 -4 -5 -10z"/>
<path d="M6860 845 c7 -8 18 -15 25 -15 8 0 16 -6 18 -12 4 -9 8 -10 14 -2 4
6 15 14 23 17 9 3 4 6 -12 6 -16 1 -28 6 -28 11 0 6 -12 10 -26 10 -22 0 -25
-2 -14 -15z"/>
<path d="M0 7995 l0 -45 44 0 c24 0 46 -5 48 -11 2 -7 9 -5 17 5 9 11 10 16 2
16 -6 0 -11 7 -11 16 0 22 -25 44 -49 44 -11 0 -23 5 -26 10 -14 23 -25 7 -25
-35z m30 -4 c0 -6 -4 -13 -10 -16 -5 -3 -10 1 -10 9 0 9 5 16 10 16 6 0 10 -4
10 -9z m35 -29 c-3 -3 -11 0 -18 7 -9 10 -8 11 6 5 10 -3 15 -9 12 -12z"/>
<path d="M3828 7983 c7 -3 16 -2 19 1 4 3 -2 6 -13 5 -11 0 -14 -3 -6 -6z"/>
<path d="M4701 7964 c0 -11 3 -14 6 -6 3 7 2 16 -1 19 -3 4 -6 -2 -5 -13z"/>
<path d="M3636 7961 c-3 -4 6 -6 19 -3 14 2 25 6 25 8 0 8 -39 4 -44 -5z"/>
<path d="M3370 7930 c-12 -8 -10 -10 11 -10 16 0 26 -6 26 -15 0 -8 -7 -15
-14 -15 -8 0 -11 5 -8 10 3 6 -3 10 -14 10 -12 0 -21 4 -21 10 0 13 -181 -2
-355 -31 -33 -5 -98 -14 -145 -19 -142 -15 -329 -38 -445 -55 -60 -9 -137 -18
-170 -21 -33 -2 -107 -11 -165 -20 -58 -8 -122 -17 -143 -20 -21 -3 -45 -7
-52 -8 -8 -1 -17 -5 -20 -8 -6 -6 155 -23 165 -17 3 1 15 -3 27 -9 12 -7 55
-14 95 -17 40 -3 81 -8 91 -11 10 -3 17 0 17 8 0 9 3 9 8 2 4 -6 61 -18 127
-27 66 -9 134 -18 150 -21 114 -16 238 -27 323 -30 54 -1 104 -6 110 -10 6 -4
50 -9 98 -11 48 -2 89 -7 92 -10 11 -10 51 -5 66 10 8 8 23 15 33 15 22 0 50
17 41 25 -3 3 -15 7 -27 8 -27 2 -28 17 -1 18 11 1 26 2 33 3 6 1 18 -2 25 -8
7 -5 12 -5 11 0 -1 5 -1 30 0 57 1 40 4 47 21 47 31 0 28 50 -2 51 -15 0 -18
2 -8 6 8 3 21 13 28 22 7 9 22 17 32 17 11 1 27 2 35 3 8 0 15 10 15 21 0 12
7 20 18 21 14 0 14 2 -3 9 -19 7 -18 8 5 12 14 3 8 4 -12 2 -22 -3 -38 0 -38
6 0 13 -40 13 -60 0z m-155 -59 c-9 -8 -36 -10 -30 -2 2 4 11 8 20 8 8 0 13
-3 10 -6z m-558 -47 c-3 -3 -12 -4 -19 -1 -8 3 -5 6 6 6 11 1 17 -2 13 -5z
m-580 -70 c-3 -3 -12 -4 -19 -1 -8 3 -5 6 6 6 11 1 17 -2 13 -5z m58 -14 c3
-5 2 -10 -4 -10 -5 0 -13 5 -16 10 -3 6 -2 10 4 10 5 0 13 -4 16 -10z m1165 0
c0 -5 -4 -10 -10 -10 -5 0 -10 5 -10 10 0 6 5 10 10 10 6 0 10 -4 10 -10z"/>
<path d="M3500 7830 c0 -5 7 -10 15 -10 8 0 15 5 15 10 0 6 -7 10 -15 10 -8 0
-15 -4 -15 -10z"/>
<path d="M3380 7640 c0 -23 25 -27 46 -6 21 21 18 26 -16 26 -23 0 -30 -4 -30
-20z"/>
<path d="M3310 7627 c0 -9 12 -14 30 -15 20 0 30 4 30 14 0 9 -11 14 -30 14
-18 0 -30 -5 -30 -13z"/>
<path d="M3318 7583 c7 -3 16 -2 19 1 4 3 -2 6 -13 5 -11 0 -14 -3 -6 -6z"/>
<path d="M1521 7274 c0 -11 3 -14 6 -6 3 7 2 16 -1 19 -3 4 -6 -2 -5 -13z"/>
<path d="M1522 7105 c0 -16 2 -22 5 -12 2 9 2 23 0 30 -3 6 -5 -1 -5 -18z"/>
<path d="M1522 6938 c1 -51 3 -66 5 -38 3 24 9 48 15 51 6 4 7 19 3 38 -13 58
-25 31 -23 -51z"/>
<path d="M1532 6800 c0 -14 2 -19 5 -12 2 6 2 18 0 25 -3 6 -5 1 -5 -13z"/>
<path d="M1512 6770 c0 -14 2 -19 5 -12 2 6 2 18 0 25 -3 6 -5 1 -5 -13z"/>
<path d="M1530 6714 c0 -8 -4 -13 -8 -10 -9 5 -13 -163 -4 -178 2 -4 8 -2 13
5 6 10 9 8 9 -8 0 -13 5 -23 11 -23 7 0 9 9 5 23 -3 12 -6 39 -6 60 0 26 -4
36 -12 31 -8 -5 -10 9 -5 54 3 34 3 62 1 62 -2 0 -4 -7 -4 -16z"/>
<path d="M1562 6650 c0 -14 2 -19 5 -12 2 6 2 18 0 25 -3 6 -5 1 -5 -13z"/>
<path d="M1754 6524 c3 -9 6 -18 6 -20 0 -2 5 -4 10 -4 6 0 10 9 10 20 0 12
-7 20 -16 20 -11 0 -14 -5 -10 -16z"/>
<path d="M1830 6500 c0 -5 7 -10 15 -10 8 0 15 5 15 10 0 6 -7 10 -15 10 -8 0
-15 -4 -15 -10z"/>
<path d="M2252 5490 c0 -14 2 -19 5 -12 2 6 2 18 0 25 -3 6 -5 1 -5 -13z"/>
<path d="M2181 5484 c0 -11 3 -14 6 -6 3 7 2 16 -1 19 -3 4 -6 -2 -5 -13z"/>
<path d="M2210 5435 c0 -8 5 -15 10 -15 6 0 10 7 10 15 0 8 -4 15 -10 15 -5 0
-10 -7 -10 -15z"/>
<path d="M2340 5276 c0 -7 11 -12 25 -12 14 0 25 3 25 7 0 4 -11 9 -25 11 -15
3 -25 1 -25 -6z"/>
<path d="M2228 5263 c7 -3 16 -2 19 1 4 3 -2 6 -13 5 -11 0 -14 -3 -6 -6z"/>
<path d="M1745 4810 c3 -5 10 -10 16 -10 5 0 9 5 9 10 0 6 -7 10 -16 10 -8 0
-12 -4 -9 -10z"/>
<path d="M1957 4214 c-10 -10 -9 -74 2 -74 5 0 11 9 14 21 6 24 -5 63 -16 53z"/>
<path d="M2185 3970 c-3 -5 -1 -10 4 -10 6 0 11 5 11 10 0 6 -2 10 -4 10 -3 0
-8 -4 -11 -10z"/>
<path d="M1953 3860 c0 -25 2 -35 4 -22 2 12 2 32 0 45 -2 12 -4 2 -4 -23z"/>
<path d="M1970 3860 c0 -22 5 -40 10 -40 6 0 10 18 10 40 0 22 -4 40 -10 40
-5 0 -10 -18 -10 -40z"/>
<path d="M2007 3823 l5 -82 -39 -4 -38 -4 43 -1 42 -2 -1 38 c0 20 -5 60 -9
87 -7 39 -7 32 -3 -32z"/>
<path d="M2170 3880 c13 -9 13 -11 0 -19 -8 -6 -11 -13 -7 -17 4 -4 14 1 21
12 14 19 6 34 -19 34 -5 0 -3 -5 5 -10z"/>
<path d="M2100 3850 c0 -5 5 -10 10 -10 6 0 10 5 10 10 0 6 -4 10 -10 10 -5 0
-10 -4 -10 -10z"/>
<path d="M2030 3780 c0 -29 4 -40 15 -40 11 0 15 11 15 40 0 29 -4 40 -15 40
-11 0 -15 -11 -15 -40z"/>
<path d="M2091 3783 c-1 -38 2 -43 21 -43 19 0 20 1 6 13 -9 6 -19 26 -21 42
-3 24 -4 21 -6 -12z"/>
<path d="M1880 3460 c0 -24 -5 -40 -12 -40 -6 0 -9 -2 -7 -5 3 -2 15 -2 27 2
18 4 22 13 22 44 0 28 -4 39 -15 39 -11 0 -15 -11 -15 -40z"/>
<path d="M2060 3380 c0 -22 5 -40 10 -40 6 0 10 18 10 40 0 22 -4 40 -10 40
-5 0 -10 -18 -10 -40z"/>
<path d="M1860 3339 c0 -5 5 -7 10 -4 6 3 10 8 10 11 0 2 -4 4 -10 4 -5 0 -10
-5 -10 -11z"/>
<path d="M1888 3308 c9 -9 15 -9 24 0 9 9 7 12 -12 12 -19 0 -21 -3 -12 -12z"/>
<path d="M1934 3299 c-12 -20 13 -32 52 -25 20 4 33 11 28 15 -15 14 -73 21
-80 10z"/>
<path d="M1861 3244 c0 -11 3 -14 6 -6 3 7 2 16 -1 19 -3 4 -6 -2 -5 -13z"/>
<path d="M1931 3244 c0 -11 3 -14 6 -6 3 7 2 16 -1 19 -3 4 -6 -2 -5 -13z"/>
<path d="M1890 3195 c0 -8 5 -15 10 -15 6 0 10 7 10 15 0 8 -4 15 -10 15 -5 0
-10 -7 -10 -15z"/>
<path d="M2000 3141 c0 -6 5 -13 10 -16 6 -3 10 1 10 9 0 9 -4 16 -10 16 -5 0
-10 -4 -10 -9z"/>
<path d="M1940 3071 c0 -17 5 -19 38 -14 38 6 49 10 41 17 -2 2 -21 6 -41 10
-34 6 -38 5 -38 -13z"/>
<path d="M2101 2974 c0 -11 3 -14 6 -6 3 7 2 16 -1 19 -3 4 -6 -2 -5 -13z"/>
<path d="M2091 2900 c0 -25 3 -38 7 -30 4 8 14 15 22 15 8 0 15 7 15 15 0 8
-7 15 -15 15 -8 0 -18 7 -22 15 -4 8 -7 -5 -7 -30z"/>
<path d="M2073 2820 c0 -25 2 -35 4 -22 2 12 2 32 0 45 -2 12 -4 2 -4 -23z"/>
<path d="M2117 2823 c-12 -12 -7 -43 7 -43 9 0 12 8 8 25 -5 27 -6 28 -15 18z"/>
<path d="M1835 2630 c-3 -5 1 -10 9 -10 9 0 16 5 16 10 0 6 -4 10 -9 10 -6 0
-13 -4 -16 -10z"/>
<path d="M3988 2603 c-27 -2 -48 -7 -48 -11 0 -4 -34 -8 -76 -8 -49 -1 -79 -6
-84 -14 -6 -9 -22 -11 -51 -7 -30 4 -37 3 -24 -3 17 -7 14 -9 -15 -9 -26 -1
-31 2 -20 9 11 7 5 8 -20 5 -199 -24 -240 -27 -254 -22 -10 4 -15 3 -12 -2 7
-10 -40 -19 -151 -27 -46 -4 -83 -11 -83 -17 0 -5 -23 -8 -55 -5 -30 3 -55 1
-55 -4 0 -5 -33 -7 -74 -6 -41 2 -72 0 -69 -4 2 -5 -14 -6 -36 -2 -27 4 -41 3
-41 -4 0 -6 -6 -9 -12 -7 -7 3 -56 -1 -108 -9 -52 -7 -101 -11 -107 -9 -7 3
-13 0 -13 -7 0 -9 -14 -11 -50 -8 -28 3 -53 2 -55 -3 -3 -4 -33 -8 -67 -8 -34
0 -64 -5 -68 -11 -4 -6 -22 -10 -41 -9 -43 2 -193 -10 -284 -23 -38 -6 -83
-11 -100 -13 -16 -1 -34 -4 -40 -5 -11 -2 -32 -5 -80 -9 -29 -3 -29 -3 9 -12
22 -5 60 -11 85 -13 25 -2 53 -6 61 -8 17 -6 217 -38 270 -43 19 -2 80 -10
135 -19 55 -8 138 -21 185 -27 47 -6 96 -13 110 -16 14 -2 51 -7 82 -10 32 -3
56 -8 54 -12 -4 -5 13 -7 122 -14 17 -1 32 -5 32 -9 0 -5 29 -8 64 -8 35 0 85
-4 112 -9 27 -5 83 -12 124 -15 41 -4 86 -9 100 -11 88 -16 222 -36 275 -40
28 -3 77 -9 110 -15 33 -5 83 -11 110 -15 167 -18 362 -41 410 -49 11 -2 26 1
33 7 8 6 12 6 12 -2 0 -7 14 -11 35 -9 35 2 47 21 20 31 -9 4 -12 15 -9 29 3
13 5 54 5 91 0 37 3 65 8 62 11 -6 2 77 -10 90 -13 13 -11 75 2 75 15 0 4 153
-11 158 -6 2 -10 10 -10 17 0 16 -35 29 -50 20 -5 -3 -10 -1 -10 5 0 5 -13 9
-30 8 -27 -2 -44 -18 -19 -18 6 0 4 -7 -5 -15 -21 -22 -26 -19 -26 15 0 23 -4
30 -20 30 -11 0 -20 -4 -20 -10 0 -5 5 -10 10 -10 6 0 10 -4 10 -10 0 -5 -9
-10 -20 -10 -11 0 -20 7 -20 15 0 8 -4 15 -10 15 -5 0 -10 -3 -10 -8 0 -4 -18
-6 -40 -4 -25 3 -40 0 -40 -7 0 -6 -17 -11 -37 -11 -28 0 -34 3 -23 10 8 5 25
10 36 10 12 0 27 7 34 15 7 8 11 14 9 13 -2 -1 -25 -3 -51 -5z m-51 -49 c-3
-3 -12 -4 -19 -1 -8 3 -5 6 6 6 11 1 17 -2 13 -5z m363 -394 c0 -11 -4 -20
-10 -20 -5 0 -10 9 -10 20 0 11 5 20 10 20 6 0 10 -9 10 -20z"/>
<path d="M4070 2600 c0 -5 4 -10 9 -10 6 0 13 5 16 10 3 6 -1 10 -9 10 -9 0
-16 -4 -16 -10z"/>
<path d="M3078 2503 c6 -2 18 -2 25 0 6 3 1 5 -13 5 -14 0 -19 -2 -12 -5z"/>
<path d="M0 2390 c0 -5 7 -7 15 -4 19 8 19 14 0 14 -8 0 -15 -4 -15 -10z"/>
<path d="M4360 2333 c0 -35 3 -44 10 -33 13 20 13 80 0 80 -5 0 -10 -21 -10
-47z"/>
<path d="M4352 2175 c0 -16 2 -22 5 -12 2 9 2 23 0 30 -3 6 -5 -1 -5 -18z"/>
<path d="M4358 2095 c-8 -8 3 -55 13 -55 5 0 8 14 7 30 -2 29 -8 36 -20 25z"/>
<path d="M4370 2020 c0 -5 6 -10 14 -10 8 0 18 5 21 10 3 6 -3 10 -14 10 -12
0 -21 -4 -21 -10z"/>
</g>
</svg>
